<?xml version="1.0" standalone="no"?>
<svg xmlns:xlink="http://www.w3.org/1999/xlink" id="wave" style="transform:rotate(180deg); transition: 0.3s" viewBox="0 0 1440 100" version="1.1" xmlns="http://www.w3.org/2000/svg"><defs><linearGradient id="sw-gradient-0" x1="0" x2="0" y1="1" y2="0"><stop stop-color="rgba(216, 59, 101, 1)" offset="0%"/><stop stop-color="rgba(176.451, 38.736, 75.577, 1)" offset="100%"/></linearGradient></defs><path style="transform:translate(0, 0px); opacity:1" fill="url(#sw-gradient-0)" d="M0,40L40,35C80,30,160,20,240,23.3C320,27,400,43,480,43.3C560,43,640,27,720,23.3C800,20,880,30,960,40C1040,50,1120,60,1200,53.3C1280,47,1360,23,1440,23.3C1520,23,1600,47,1680,61.7C1760,77,1840,83,1920,83.3C2000,83,2080,77,2160,71.7C2240,67,2320,63,2400,51.7C2480,40,2560,20,2640,10C2720,0,2800,0,2880,10C2960,20,3040,40,3120,41.7C3200,43,3280,27,3360,25C3440,23,3520,37,3600,48.3C3680,60,3760,70,3840,68.3C3920,67,4000,53,4080,51.7C4160,50,4240,60,4320,66.7C4400,73,4480,77,4560,75C4640,73,4720,67,4800,60C4880,53,4960,47,5040,43.3C5120,40,5200,40,5280,36.7C5360,33,5440,27,5520,35C5600,43,5680,67,5720,78.3L5760,90L5760,100L5720,100C5680,100,5600,100,5520,100C5440,100,5360,100,5280,100C5200,100,5120,100,5040,100C4960,100,4880,100,4800,100C4720,100,4640,100,4560,100C4480,100,4400,100,4320,100C4240,100,4160,100,4080,100C4000,100,3920,100,3840,100C3760,100,3680,100,3600,100C3520,100,3440,100,3360,100C3280,100,3200,100,3120,100C3040,100,2960,100,2880,100C2800,100,2720,100,2640,100C2560,100,2480,100,2400,100C2320,100,2240,100,2160,100C2080,100,2000,100,1920,100C1840,100,1760,100,1680,100C1600,100,1520,100,1440,100C1360,100,1280,100,1200,100C1120,100,1040,100,960,100C880,100,800,100,720,100C640,100,560,100,480,100C400,100,320,100,240,100C160,100,80,100,40,100L0,100Z"/></svg>